<svg
   width="35mm"
   height="45mm"
   viewBox="0 0 35 45"
   version="1.1"
   xmlns="http://www.w3.org/2000/svg">
   <g id="layer1">
     <path
       style="fill:#ffffff;stroke-width:1.565;stroke-linejoin:bevel;paint-order:markers stroke fill"
       d="m 10.544948,4.7335775 1.443595,-1.3045019 2.048801,-0.1685684 1.698975,2.4024373 0.594277,7.1026905 3.193346,-0.07736 2.095644,1.913985 3.088752,-0.323757 2.040418,1.66202 1.883317,0.145556 1.76032,1.696561 1.791812,1.823601 0.04006,11.214612 -1.958271,1.57982 0.286678,3.92522 -2.11279,1.67222 -0.256416,3.600018 -16.40496,0.275778 0.217136,-3.699094 -1.473039,-2.217711 -0.461506,-1.62333 0.113236,-0.101425 -1.5978049,-1.791113 -0.3216077,-1.971813 -1.6872341,-1.523693 -0.103046,-2.024205 -1.910812,-1.468983 0.132503,-0.691415 -2.1440307,-1.545172 0.5519479,-3.465948 3.6852394,0.148285 1.4244653,1.53155 1.8106998,0.180505 z"
       id="path3" />
     <path
       style="fill:#000000"
       d="m 11.282293,39.830205 v -2.64583 h 0.78166 0.78166 l 0.0782,1.75253 0.0782,1.75253 7.27604,-0.0318 7.27604,-0.0319 0.0782,-1.72068 0.0782,-1.72068 h 0.78166 0.78166 v 2.64583 2.64584 h -8.99583 -8.99583 z m -1.8520895,-4.63021 v -1.71979 h 0.7937495 0.79375 v 1.71979 1.7198 h -0.79375 -0.7937495 z m 20.1083405,-0.92604 v -2.64583 h 0.79375 0.79375 v 2.64583 2.64584 h -0.79375 -0.79375 z M 7.5781235,31.495835 v -1.71979 h 0.79375 0.79375 v 1.71979 1.71979 h -0.79375 -0.79375 z m 23.8125005,-6.21771 v -6.35 h 0.79375 0.79375 v 6.35 6.35 h -0.79375 -0.79375 z m -25.6645805,2.64583 v -1.85208 h 0.79375 0.79375 v 1.85208 1.85209 h -0.79375 -0.79375 z m -1.852087,-2.77812 v -0.92604 h -0.92604 -0.92604 v -2.64584 -2.64583 h 2.64583 2.645837 v 0.79375 0.79375 h -1.719787 -1.7198 v 1.85208 1.85209 h 0.79375 0.79375 v 0.92604 0.92604 h -0.79375 -0.79375 z m 5.556247,-1.85209 v -0.92604 h -0.92604 -0.92604 v -0.77698 -0.77699 l 0.8599,-0.0829 0.85989,-0.0829 0.07,-8.13594 0.07,-8.13593 h 0.7899295 0.78992 v 9.92187 9.92188 h -0.79375 -0.7937495 z m 16.4041705,-4.49791 v -3.57188 h 1.71979 1.71979 v 0.77699 0.77698 l -0.85989,0.0829 -0.8599,0.0829 -0.0754,2.71198 -0.0754,2.71198 h -0.78449 -0.7845 z m -11.1125,-6.35 v -8.06979 h 0.92604 0.92604 v 3.57187 3.57188 h 1.85209 1.85208 v 0.92604 0.92604 h 2.6626 2.6626 l -0.0829,0.85989 -0.0829,0.8599 -1.65365,0.0788 -1.65365,0.0788 v 2.63321 2.63321 h -0.92604 -0.92604 v -3.57188 -3.57187 h -1.85208 -1.85209 v 3.57187 3.57188 h -0.92604 -0.92604 z m 14.81667,5.42396 v -0.79375 h 0.79375 0.79375 v 0.79375 0.79375 h -0.79375 -0.79375 z M 11.282294,3.317705 v -0.79375 h 1.71979 1.71979 v 0.79375 0.79375 h -1.71979 -1.71979 z" />
     <circle
       id="path2"
       style="fill:#000000;stroke:#000000;stroke-width:0.264583"
       cx="10.507227"
       cy="4.8468914"
       r="0.075288452" />
   </g>
</svg>
