<svg
   width="65mm"
   height="85mm"
   viewBox="0 0 65 85"
   xmlns="http://www.w3.org/2000/svg">
  <path
     d="m 8.1879003,35.373587 c 0.04762,-11.04638 1.655701,-18.25869 8.8699317,-22.84957 4.552295,-2.9319802 8.558718,-4.3979802 15.194267,-4.3979802 8.718804,0 12.458784,2.0832602 16.938064,6.2497702 4.88491,4.64547 7.62189,10.33911 7.62189,18.51781 0,5.01524 -1.78298,9.23962 -4.2906,12.67313 -1.46599,2.08325 -4.8114,4.74519 -8.97791,7.9858 l -4.63781,3.18275 c -2.23757,1.73605 -3.72285,3.76143 -4.45585,6.07616 -0.40246,1.27443 -0.64455,3.16113 -0.7263,5.6601 -0.0123,0.37561 -0.0209,12.9359 -0.026,13.33918"
     style="fill:none;stroke:#000000;stroke-width:10;stroke-linejoin:bevel;stroke-dasharray:none" />
</svg>
